<svg width="1418" height="28" viewBox="0 0 1418 28" fill="none" xmlns="http://www.w3.org/2000/svg">
<path fill-rule="evenodd" clip-rule="evenodd" d="M791.1 1.6288C787.793 1.62481 784.479 1.62394 781.158 1.62629L781.157 0.37629C784.479 0.373943 787.793 0.374809 791.101 0.3788L791.1 1.6288ZM771.175 1.64306C767.852 1.65189 764.521 1.664 761.185 1.67948L761.18 0.429496C764.516 0.414011 767.847 0.401895 771.172 0.39306L771.175 1.64306ZM811.077 1.69064C807.757 1.67415 804.429 1.66069 801.093 1.65035L801.097 0.400353C804.434 0.410699 807.762 0.424163 811.083 0.440652L811.077 1.69064ZM751.239 1.73559C747.918 1.75766 744.591 1.78314 741.259 1.8121L741.248 0.562145C744.581 0.533177 747.908 0.507696 751.23 0.485617L751.239 1.73559ZM831.013 1.82612C827.688 1.7975 824.354 1.77178 821.012 1.74907L821.02 0.499102C824.363 0.521817 827.698 0.547536 831.023 0.576163L831.013 1.82612ZM731.271 1.90928C727.959 1.94496 724.642 1.98416 721.321 2.02694L721.305 0.777042C724.627 0.734248 727.945 0.695047 731.258 0.659354L731.271 1.90928ZM850.919 2.03285C847.62 1.99279 844.312 1.95547 840.995 1.92098L841.008 0.671051C844.326 0.705545 847.635 0.742874 850.934 0.782941L850.919 2.03285ZM870.909 2.31035C867.595 2.25864 864.269 2.20957 860.933 2.16323L860.95 0.913351C864.287 0.959698 867.613 1.00878 870.928 1.0605L870.909 2.31035ZM711.345 2.16614C708.02 2.21612 704.691 2.26977 701.359 2.32716L701.337 1.07735C704.671 1.01994 708 0.966278 711.326 0.916282L711.345 2.16614ZM890.854 2.65518C887.52 2.59198 884.175 2.5313 880.816 2.47327L880.838 1.22346C884.197 1.2815 887.543 1.34219 890.877 1.4054L890.854 2.65518ZM691.406 2.5096C688.085 2.57418 684.761 2.64254 681.434 2.71477L681.407 1.46506C684.735 1.39281 688.06 1.32443 691.382 1.25984L691.406 2.5096ZM910.743 3.06492C907.448 2.99168 904.139 2.92077 900.816 2.8523L900.842 1.60257C904.165 1.67105 907.475 1.74197 910.771 1.81523L910.743 3.06492ZM671.451 2.94302C668.135 3.02268 664.816 3.10626 661.495 3.19382L661.462 1.94426C664.784 1.85666 668.104 1.77306 671.421 1.69338L671.451 2.94302ZM930.712 3.54086C927.414 3.457 924.1 3.37532 920.772 3.29596L920.802 2.04632C924.131 2.1257 927.445 2.20738 930.744 2.29126L930.712 3.54086ZM651.527 3.46859C648.203 3.56422 644.877 3.66392 641.549 3.76778L641.51 2.51838C644.839 2.4145 648.166 2.31476 651.491 2.21911L651.527 3.46859ZM950.683 4.07996C947.364 3.98521 944.029 3.89252 940.676 3.80202L940.71 2.55248C944.063 2.643 947.399 2.7357 950.719 2.83047L950.683 4.07996ZM631.591 4.09095C628.27 4.20286 624.948 4.31897 621.626 4.43938L621.581 3.1902C624.904 3.06976 628.227 2.9536 631.549 2.84166L631.591 4.09095ZM970.608 4.67927C967.287 4.57433 963.946 4.47129 960.587 4.37028L960.625 3.12084C963.984 3.22188 967.325 3.32494 970.647 3.42989L970.608 4.67927ZM611.657 4.81354C608.336 4.9425 605.016 5.07582 601.695 5.21359L601.643 3.96466C604.965 3.82685 608.287 3.69349 611.609 3.56449L611.657 4.81354ZM990.485 5.3369C987.203 5.22346 983.9 5.11168 980.577 5.00171L980.618 3.75239C983.942 3.86239 987.245 3.97418 990.528 4.08765L990.485 5.3369ZM591.733 5.64024C588.412 5.78695 585.092 5.93818 581.773 6.09401L581.715 4.84539C585.035 4.6895 588.356 4.53822 591.678 4.39146L591.733 5.64024ZM1010.43 6.05557C1007.15 5.93269 1003.85 5.81125 1000.53 5.69142L1000.57 4.44223C1003.9 4.56208 1007.2 4.68354 1010.48 4.80645L1010.43 6.05557ZM1030.41 6.83281C1027.11 6.69985 1023.79 6.56812 1020.44 6.43779L1020.49 5.18874C1023.84 5.31909 1027.16 5.45085 1030.46 5.58383L1030.41 6.83281ZM571.81 6.57579C568.489 6.74108 565.169 6.91105 561.85 7.08579L561.785 5.83752C565.104 5.66272 568.425 5.49268 571.747 5.32734L571.81 6.57579ZM51.5208 6.67491C48.2118 6.68726 44.8313 6.71619 41.3759 6.7626L41.3591 5.51272C44.8184 5.46625 48.203 5.43729 51.5161 5.42492L51.5208 6.67491ZM71.6588 6.8117C68.393 6.75337 65.052 6.71217 61.6316 6.68925L61.6399 5.43928C65.0649 5.46223 68.4106 5.50349 71.6812 5.5619L71.6588 6.8117ZM31.3795 6.94172C28.0614 7.01569 24.6769 7.10524 21.2234 7.21109L21.1851 5.96168C24.642 5.85573 28.03 5.76608 31.3517 5.69203L31.3795 6.94172ZM91.8615 7.41998C88.5696 7.27859 85.1962 7.15532 81.7355 7.05174L81.7729 5.8023C85.239 5.90604 88.6178 6.02951 91.9152 6.17113L91.8615 7.41998ZM1050.36 7.66513C1047.04 7.5222 1043.7 7.38024 1040.32 7.23942L1040.37 5.99051C1043.75 6.13135 1047.1 6.27334 1050.41 6.41629L1050.36 7.66513ZM11.1882 7.5576C9.48378 7.62291 2.76318 7.69205 1.02615 7.7651L0.973633 6.5162C2.7122 6.44309 9.43435 6.37388 11.1404 6.30851L11.1882 7.5576ZM551.9 7.6244C548.578 7.80914 545.257 7.99875 541.939 8.19331L541.866 6.94545C545.185 6.75082 548.507 6.56114 551.83 6.37632L551.9 7.6244ZM111.996 8.56552C108.73 8.33246 105.381 8.11723 101.942 7.92192L102.013 6.67393C105.458 6.86958 108.813 7.0852 112.085 7.31869L111.996 8.56552ZM1070.28 8.55126C1066.96 8.39902 1063.6 8.2474 1060.21 8.09662L1060.27 6.84785C1063.66 6.99865 1067.02 7.1503 1070.34 7.30257L1070.28 8.55126ZM1417.55 8.12334C1415.77 8.25312 1407.03 8.38238 1405.32 8.51109L1405.22 7.2646C1406.94 7.13583 1415.68 7.00651 1417.45 6.87666L1417.55 8.12334ZM531.982 8.79243C528.665 8.99714 525.351 9.20689 522.04 9.42176L521.959 8.17438C525.272 7.95943 528.587 7.74959 531.905 7.5448L531.982 8.79243ZM1090.2 9.49009C1086.9 9.33016 1083.56 9.17043 1080.18 9.01115L1080.24 7.76254C1083.62 7.92184 1086.96 8.08159 1090.26 8.24155L1090.2 9.49009ZM1395.04 9.3051C1391.48 9.58767 1388.06 9.86698 1384.78 10.1425L1384.67 8.89689C1387.96 8.6212 1391.38 8.34174 1394.94 8.05902L1395.04 9.3051ZM132.067 10.3038C128.808 9.97123 125.468 9.65498 122.036 9.35791L122.144 8.11256C125.582 8.4102 128.929 8.72706 132.194 9.06028L132.067 10.3038ZM1110.12 10.4805C1106.83 10.313 1103.5 10.1452 1100.12 9.9773L1100.19 8.72884C1103.56 8.89673 1106.89 9.06458 1110.18 9.23211L1110.12 10.4805ZM512.085 10.0838C508.764 10.3101 505.446 10.5417 502.131 10.7786L502.042 9.53176C505.358 9.29478 508.678 9.06312 512 8.83672L512.085 10.0838ZM1130.04 11.521C1126.77 11.346 1123.43 11.1699 1120.05 10.9932L1120.12 9.74491C1123.5 9.92165 1126.83 10.0977 1130.11 10.2728L1130.04 11.521ZM1374.55 11.024C1370.94 11.3433 1367.51 11.6565 1364.22 11.9626L1364.11 10.718C1367.39 10.4117 1370.83 10.0984 1374.44 9.77886L1374.55 11.024ZM152.098 12.6512C148.838 12.2217 145.506 11.8045 142.09 11.4036L142.235 10.1622C145.658 10.5638 148.995 10.9817 152.262 11.412L152.098 12.6512ZM492.199 11.5053C488.879 11.7538 485.564 12.0078 482.253 12.2674L482.155 11.0212C485.468 10.7615 488.785 10.5074 492.105 10.2588L492.199 11.5053ZM1149.98 12.6091C1146.7 12.4266 1143.36 12.2422 1139.95 12.0561L1140.02 10.808C1143.43 10.9941 1146.77 11.1785 1150.05 11.3611L1149.98 12.6091ZM1353.99 12.9379C1350.38 13.2892 1346.96 13.6287 1343.7 13.9551L1343.58 12.7113C1346.84 12.3849 1350.26 12.0452 1353.87 11.6938L1353.99 12.9379ZM472.303 13.0651C468.99 13.3367 465.683 13.6139 462.381 13.8968L462.274 12.6514C465.578 12.3683 468.887 12.091 472.201 11.8193L472.303 13.0651ZM1169.9 13.7394C1166.62 13.5499 1163.25 13.3571 1159.8 13.1613L1159.87 11.9133C1163.32 12.1091 1166.69 12.302 1169.97 12.4915L1169.9 13.7394ZM172.062 15.5212C168.79 15.018 165.472 14.52 162.089 14.032L162.268 12.7948C165.655 13.2835 168.977 13.7821 172.252 14.2857L172.062 15.5212ZM1189.71 14.8994C1186.52 14.7101 1183.22 14.5153 1179.81 14.3157L1179.88 13.0678C1183.29 13.2675 1186.59 13.4623 1189.79 13.6516L1189.71 14.8994ZM452.447 14.7666C449.126 15.0637 445.811 15.3668 442.501 15.6758L442.385 14.4312C445.696 14.122 449.013 13.8189 452.335 13.5216L452.447 14.7666ZM1333.44 14.9832C1329.87 15.3395 1326.47 15.6742 1323.18 15.9846L1323.06 14.7401C1326.35 14.43 1329.75 14.0956 1333.32 13.7394L1333.44 14.9832ZM1204.57 15.7852L1199.77 15.498L1199.84 14.2503L1204.65 14.5375C1206.43 14.6437 1208.17 14.7466 1209.88 14.846L1209.81 16.0939C1208.1 15.9944 1206.35 15.8915 1204.57 15.7852ZM432.592 16.621C429.278 16.9437 425.971 17.2725 422.671 17.6076L422.545 16.364C425.847 16.0287 429.155 15.6997 432.47 15.3769L432.592 16.621ZM1230.38 17.2003C1227.1 17.0402 1223.67 16.8642 1220.1 16.6715L1220.17 15.4234C1223.74 15.6159 1227.16 15.7918 1230.44 15.9517L1230.38 17.2003ZM1312.9 16.8953C1309.44 17.1778 1306.04 17.4269 1302.61 17.639L1302.53 16.3914C1305.95 16.1799 1309.35 15.9313 1312.8 15.6494L1312.9 16.8953ZM187.989 18.0388C186.008 17.7213 184.02 17.4028 182.021 17.0843L182.218 15.8499C184.217 16.1684 186.206 16.4871 188.187 16.8046C189.52 17.0182 190.85 17.2312 192.177 17.4434L191.98 18.6777C190.651 18.4654 189.322 18.2524 187.989 18.0388ZM1251.03 18.0555C1247.74 17.9479 1244.3 17.819 1240.68 17.6678L1240.73 16.4189C1244.35 16.57 1247.78 16.6988 1251.07 16.8062L1251.03 18.0555ZM1292.29 18.155C1288.97 18.2812 1285.55 18.3721 1281.97 18.4248L1281.96 17.1749C1285.52 17.1224 1288.93 17.0317 1292.24 16.9059L1292.29 18.155ZM1271.64 18.4708C1268.37 18.454 1264.94 18.4088 1261.32 18.3335L1261.34 17.0838C1264.96 17.159 1268.38 17.2041 1271.65 17.2208L1271.64 18.4708ZM412.734 18.6377C409.428 18.9874 406.13 19.3436 402.839 19.7062L402.702 18.4637C405.995 18.1009 409.295 17.7446 412.602 17.3947L412.734 18.6377ZM211.932 21.7518C208.581 21.2663 205.261 20.7643 201.952 20.2516L202.143 19.0163C205.45 19.5286 208.766 20.0299 212.112 20.5147L211.932 21.7518ZM392.933 20.8202C389.616 21.2007 386.307 21.588 383.007 21.9821L382.859 20.741C386.161 20.3466 389.472 19.9591 392.79 19.5783L392.933 20.8202ZM231.963 24.3542C228.561 23.9702 225.224 23.5611 221.934 23.1319L222.095 21.8924C225.379 22.3207 228.709 22.729 232.104 23.1121L231.963 24.3542ZM373.133 23.1851C371.492 23.389 369.853 23.5947 368.216 23.8021C368.208 23.803 368.201 23.8039 368.193 23.8045C366.459 23.9601 364.743 24.1104 363.044 24.2555L362.938 23.0101C364.631 22.8654 366.342 22.7156 368.07 22.5606C369.704 22.3535 371.34 22.1482 372.979 21.9446L373.133 23.1851ZM353.056 25.0646C349.594 25.3294 346.206 25.5716 342.891 25.7922L342.808 24.5449C346.119 24.3246 349.502 24.0827 352.961 23.8182L353.056 25.0646ZM252.1 26.2316C248.66 25.98 245.305 25.699 242.021 25.3924L242.138 24.1478C245.413 24.4536 248.76 24.734 252.192 24.9849L252.1 26.2316ZM332.835 26.4079C329.421 26.5983 326.086 26.7647 322.826 26.9082L322.771 25.6594C326.026 25.5161 329.356 25.35 332.765 25.1598L332.835 26.4079ZM272.279 27.3049C268.827 27.1883 265.468 27.0416 262.19 26.8677L262.256 25.6195C265.526 25.7929 268.877 25.9393 272.321 26.0556L272.279 27.3049ZM312.654 27.2907C309.196 27.3977 305.825 27.478 302.536 27.533L302.515 26.2832C305.798 26.2283 309.163 26.1482 312.615 26.0413L312.654 27.2907ZM292.445 27.6245C288.996 27.6287 285.638 27.6041 282.364 27.553L282.383 26.3031C285.651 26.3542 289.002 26.3787 292.444 26.3745L292.445 27.6245Z" fill="#181717"/>
</svg>
